<?xml version="1.0" encoding="UTF-8"?>
<svg version="1.1" xmlns="http://www.w3.org/2000/svg" width="32" height="32" xmlns:cc="http://creativecommons.org/ns#" xmlns:dc="http://purl.org/dc/elements/1.1/" xmlns:inkscape="http://www.inkscape.org/namespaces/inkscape" xmlns:rdf="http://www.w3.org/1999/02/22-rdf-syntax-ns#" xmlns:sodipodi="http://sodipodi.sourceforge.net/DTD/sodipodi-0.dtd" xmlns:svg="http://www.w3.org/2000/svg" xmlns:xlink="http://www.w3.org/1999/xlink" baseProfile="tiny-ps" id="svg22" xml:space="preserve">
<title>Sourabh Saini</title>
<path d="M0 0 C1.1653125 -0.00128906 2.330625 -0.00257813 3.53125 -0.00390625 C4.7584375 -0.00003906 5.985625 0.00382813 7.25 0.0078125 C9.09078125 0.00201172 9.09078125 0.00201172 10.96875 -0.00390625 C12.71671875 -0.00197266 12.71671875 -0.00197266 14.5 0 C15.57765625 0.00112793 16.6553125 0.00225586 17.765625 0.00341797 C20.25 0.1328125 20.25 0.1328125 21.25 1.1328125 C21.39441944 2.46422569 21.47692767 3.80250425 21.53125 5.140625 C21.56863281 5.96304687 21.60601563 6.78546875 21.64453125 7.6328125 C21.69673828 8.9321875 21.69673828 8.9321875 21.75 10.2578125 C21.81978041 11.94804906 21.89264915 13.63816122 21.96875 15.328125 C21.99904297 16.08109863 22.02933594 16.83407227 22.06054688 17.60986328 C22.30009017 20.79986383 22.79759566 23.96598209 23.25 27.1328125 C12.69 27.1328125 2.13 27.1328125 -8.75 27.1328125 C-8.42 24.8228125 -8.09 22.5128125 -7.75 20.1328125 C-7.62986794 18.53301258 -7.53324077 16.93113231 -7.46875 15.328125 C-7.43136719 14.49796875 -7.39398438 13.6678125 -7.35546875 12.8125 C-7.28419028 11.08597711 -7.21390359 9.35941303 -7.14453125 7.6328125 C-7.10714844 6.81039063 -7.06976563 5.98796875 -7.03125 5.140625 C-7.00095703 4.39441895 -6.97066406 3.64821289 -6.93945312 2.87939453 C-6.510706 -1.07325611 -3.2988945 0.00345279 0 0 Z " fill="#C7D3DC" transform="translate(8.75,4.8671875)"/>
<path d="M0 0 C7.92 0 15.84 0 24 0 C24 4.95 24 9.9 24 15 C16.08 15 8.16 15 0 15 C0 10.05 0 5.1 0 0 Z " fill="#62AEEB" transform="translate(4,7)"/>
<path d="M0 0 C7.92 0 15.84 0 24 0 C24.33 1.32 24.66 2.64 25 4 C25.99 4.33 26.98 4.66 28 5 C28 5.66 28 6.32 28 7 C17.44 7 6.88 7 -4 7 C-4 6.34 -4 5.68 -4 5 C-0.04 5 3.92 5 8 5 C8 4.34 8 3.68 8 3 C5.03 3 2.06 3 -1 3 C-0.67 2.01 -0.34 1.02 0 0 Z " fill="#AAB8C0" transform="translate(4,25)"/>
</svg>
